<svg xmlns="http://www.w3.org/2000/svg" viewBox="0 0 360 96" role="img" aria-label="伊斯特拉国际">
  <g transform="translate(16,26) scale(0.78)">
    <rect x="10" y="2" width="60" height="60" rx="13" fill="#041B3A" stroke="rgba(255,255,255,0.22)" stroke-width="1.2"/>
    <path d="M8 32 L40 30.5 L50 28.8 L56 29 L66 31.5 L62 35.2 L8 34.5 Z" fill="#FFFFFF" stroke="#FFFFFF" stroke-width="1.2" stroke-linejoin="round"/>
    <path d="M62 30.5 L58 18 L51 16 L53 24 Z" fill="#FFFFFF" stroke="#FFFFFF" stroke-width="1.2" stroke-linejoin="round"/>
    <path d="M42 35.5 L52 43 L62 46 L50 37 Z" fill="#FFFFFF" stroke="#FFFFFF" stroke-width="1.2" stroke-linejoin="round"/>
    <path d="M55 43 L62 43 A2 2 0 0 1 62 47 L55 47 A2 2 0 0 1 55 43 Z" fill="#FFFFFF"/>
    <path d="M48 29 L50.5 32 L52.5 34 L50.5 36 L48 39 L45.5 36 L43.5 34 L45.5 32 Z" fill="#FFFFFF" stroke="#FFFFFF" stroke-width="1" stroke-linejoin="round"/>
    <path d="M48 32.8 L49.4 34 L48 35.2 L46.6 34 Z" fill="#C9A227"/>
  </g>
  <text x="100" y="62" font-family="'Noto Sans SC','PingFang SC','Microsoft YaHei',sans-serif" font-size="30" font-weight="700" fill="#FFFFFF" letter-spacing="3">伊斯特拉国际</text>
  <text x="101" y="82" font-family="'Inter','Segoe UI',sans-serif" font-size="12" font-weight="600" fill="rgba(255,255,255,0.65)" letter-spacing="6">ESTRELLA INTERNATIONAL</text>
</svg>